<!--?xml version="1.0" encoding="utf-8"?-->
<!-- Generator: Adobe Illustrator 18.1.1, SVG Export Plug-In . SVG Version: 6.00 Build 0)  -->

<svg version="1.1" id="_x32_" xmlns="http://www.w3.org/2000/svg" xmlns:xlink="http://www.w3.org/1999/xlink" x="0px" y="0px" viewBox="0 0 512 512" style="opacity: 1;" xml:space="preserve">
<style type="text/css">
</style>
<g>
	<path class="st0" d="M506.735,157.991c-5.065-11.96-13.434-22.128-24.227-29.416c-11.041-7.481-23.965-11.434-37.407-11.434
		H282.266c0.957,5.952,1.59,12.013,1.59,18.236c0,63.209-51.427,114.636-114.636,114.636S54.585,198.586,54.585,135.377
		c0-5.89,0.586-11.627,1.444-17.286c-5.204,0.849-10.291,2.239-15.171,4.308c-11.967,5.064-22.135,13.442-29.423,24.228
		C3.945,157.69-0.008,170.622,0,184.033v224.523c0,9.018,1.776,17.78,5.265,26.042c5.066,11.966,13.435,22.135,24.22,29.416
		c11.048,7.481,23.972,11.434,37.376,11.434h378.24c9.041,0,17.796-1.776,26.042-5.272c11.959-5.05,22.127-13.427,29.415-24.212
		C508.047,434.898,512,421.966,512,408.555V184.033C512,174.999,510.224,166.236,506.735,157.991z M449.71,394.033
		c0,11.365-9.226,20.575-20.583,20.575H229.904L361.371,177.98h67.756c11.357,0,20.583,9.21,20.583,20.583V394.033z"></path>
	<path class="st0" d="M169.22,234.201c54.577,0,98.824-44.247,98.824-98.824c0-54.577-44.247-98.824-98.824-98.824
		S70.396,80.8,70.396,135.377C70.396,189.954,114.644,234.201,169.22,234.201z M150.15,84.776l19.65,35.924l19.672-35.924h22.86
		l-23.068,42.154h19.679v15.967h-27.045v10.422h27.045v15.959h-27.045v20.413h-2.254h-19.672h-2.262v-20.413h-27.046V153.32h27.046
		v-10.422h-27.046v-15.967h19.68l-23.069-42.154H150.15z" ></path>
</g>
</svg>
