<svg id="レイヤー_1" data-name="レイヤー 1" xmlns="http://www.w3.org/2000/svg" xmlns:xlink="http://www.w3.org/1999/xlink" viewBox="0 0 245 245">
  <defs>
    <style>
      .cheering-clss-1,.cheering-clss-2{fill:none;stroke-miterlimit:10;stroke-width:5px;}.cheering-clss-1,.cheering-clss-2,.cheering-clss-3,.cheering-clss-4,.cheering-clss-5,.cheering-clss-6,.cheering-clss-7{opacity:0.7;}.cheering-clss-1{stroke:url(#cheering-gradation_2);}.cheering-clss-2{stroke:url(#cheering-gradation_2-2);}.cheering-clss-3{fill:url(#cheering-gradation_2-3);}.cheering-clss-4{fill:url(#cheering-gradation_2-4);}.cheering-clss-5{fill:url(#cheering-gradation_2-5);}.cheering-clss-6{font-size:20px;fill:#ea555c;font-family:HiraKakuStdN-W8-83pv-RKSJ-H, Hiragino Kaku Gothic StdN;}.cheering-clss-8{fill:url(#cheering-gradation_2-6);}
    </style>
    <linearGradient id="cheering-gradation_2" y1="122.5" x2="245" y2="122.5" gradientUnits="userSpaceOnUse">
      <stop offset="0" stop-color="#ee7649"/>
      <stop offset="0.08" stop-color="#e46544"/>
      <stop offset="0.18" stop-color="#dd5a41"/>
      <stop offset="0.28" stop-color="#db5640"/>
      <stop offset="0.57" stop-color="#ea555c"/>
      <stop offset="0.81" stop-color="#d64292"/>
      <stop offset="1" stop-color="#d64292"/>
    </linearGradient>
    <linearGradient id="cheering-gradation_2-2" x1="14.5" y1="122.5" x2="230.5" y2="122.5" xlink:href="#cheering-gradation_2"/>
    <linearGradient id="cheering-gradation_2-3" x1="118.5" y1="27.42" x2="126.5" y2="27.42" xlink:href="#cheering-gradation_2"/>
    <linearGradient id="cheering-gradation_2-4" x1="85.15" y1="35.42" x2="93.15" y2="35.42" xlink:href="#cheering-gradation_2"/>
    <linearGradient id="cheering-gradation_2-5" x1="153.5" y1="35.42" x2="161.5" y2="35.42" xlink:href="#cheering-gradation_2"/>
    <linearGradient id="cheering-gradation_2-6" x1="68.56" y1="161.72" x2="198.56" y2="161.72" xlink:href="#cheering-gradation_2"/>
  </defs>
  <title>cheering</title>
  <circle class="cheering-clss-1" cx="122.5" cy="122.5" r="120"/>
  <circle class="cheering-clss-2" cx="122.5" cy="122.5" r="105.5"/>
  <circle class="cheering-clss-3" cx="122.5" cy="27.42" r="4"/>
  <circle class="cheering-clss-4" cx="89.15" cy="35.42" r="4"/>
  <circle class="cheering-clss-5" cx="157.5" cy="35.42" r="4"/>
  <text class="cheering-clss-6" transform="matrix(0.89, -0.49, 0.48, 0.88, 78.98, 69.49)">C</text>
  <text class="cheering-clss-6" transform="matrix(0.96, -0.32, 0.31, 0.95, 93.43, 61.63)">h</text>
  <text class="cheering-clss-6" transform="translate(106.99 57.16) rotate(-8.84) scale(1.01 1)">e</text>
  <text class="cheering-clss-6" transform="translate(120.18 55.06) rotate(0.37) scale(1.01 1)">e</text>
  <text class="cheering-clss-6" transform="translate(133.59 55.21) rotate(8.76) scale(1.01 1)">r</text>
  <text class="cheering-clss-6" transform="matrix(0.98, 0.26, -0.25, 0.97, 144.35, 56.97)">i</text>
  <text class="cheering-clss-6" transform="translate(150.18 58.2) rotate(21.65) scale(1.01 1)">n</text>
  <text class="cheering-clss-6" transform="matrix(0.86, 0.53, -0.52, 0.85, 163.44, 63.4)">g</text>
  <text class="cheering-clss-6" transform="matrix(0.79, 0.63, -0.63, 0.78, 175.73, 71.23)"> </text>
  <g class="cheering-clss-7">
      <path class="cheering-clss-8" d="M86.94,180l73.13-72.53,38.49,76.39-41.5,6.36a26.18,26.18,0,0,1-50.6,7.76l-9.71,1.49L88.18,216,68.56,177ZM118,201.52a18.24,18.24,0,0,0,30.93-10.07l-34.35,5.26A18.38,18.38,0,0,0,118,201.52Z" transform="translate(-7.06 -24.23)"/>
  </g>
</svg>
