<svg id="レイヤー_1" data-name="レイヤー 1" xmlns="http://www.w3.org/2000/svg" xmlns:xlink="http://www.w3.org/1999/xlink" viewBox="0 0 245 245"><defs><style>.cls-1,.cls-2{fill:none;stroke-miterlimit:10;stroke-width:5px;}.cls-1{stroke:url(#color-good-opinion-gradation_1);}.cls-2{stroke:url(#color-good-opinion-gradation_1-2);}.cls-3{fill:url(#color-good-opinion-gradation_1-3);}.cls-4{fill:url(#color-good-opinion-gradation_1-4);}.cls-5,.cls-6{opacity:0.7;}.cls-5{fill:url(#color-good-opinion-gradation_1-5);}.cls-6{fill:url(#color-good-opinion-gradation_1-6);}.cls-7{fill:url(#color-good-opinion-gradation_1-7);}.cls-8{font-size:20px;fill:#2ea7e0;font-family:HiraKakuStdN-W8-83pv-RKSJ-H, Hiragino Kaku Gothic StdN;}</style><linearGradient id="color-good-opinion-gradation_1" y1="122.5" x2="245" y2="122.5" gradientUnits="userSpaceOnUse"><stop offset="0" stop-color="#23b8c6"/><stop offset="0.06" stop-color="#2bb1d1"/><stop offset="0.17" stop-color="#33a9dc"/><stop offset="0.28" stop-color="#36a7e0"/><stop offset="0.67" stop-color="#51a0d9"/><stop offset="0.89" stop-color="#3699d6"/><stop offset="1" stop-color="#337bc0"/></linearGradient><linearGradient id="color-good-opinion-gradation_1-2" x1="14.5" y1="122.5" x2="230.5" y2="122.5" xlink:href="#color-good-opinion-gradation_1"/><linearGradient id="color-good-opinion-gradation_1-3" x1="99.59" y1="152.41" x2="195.56" y2="152.41" xlink:href="#color-good-opinion-gradation_1"/><linearGradient id="color-good-opinion-gradation_1-4" x1="65.56" y1="188.03" x2="92.12" y2="188.03" xlink:href="#color-good-opinion-gradation_1"/><linearGradient id="color-good-opinion-gradation_1-5" x1="118.5" y1="27.42" x2="126.5" y2="27.42" xlink:href="#color-good-opinion-gradation_1"/><linearGradient id="color-good-opinion-gradation_1-6" x1="85.15" y1="35.42" x2="93.15" y2="35.42" xlink:href="#color-good-opinion-gradation_1"/><linearGradient id="color-good-opinion-gradation_1-7" x1="153.5" y1="35.42" x2="161.5" y2="35.42" xlink:href="#color-good-opinion-gradation_1"/></defs><title>color-good-opinion</title><circle class="cls-1" cx="122.5" cy="122.5" r="120"/><circle class="cls-2" cx="122.5" cy="122.5" r="105.5"/><path class="cls-3" d="M195.56,171.55a9.19,9.19,0,0,0-6.76-8.84,9.21,9.21,0,0,0-5.2-16.81H166.37c-3.72-.16-7.74-.79-9.79-3-5.51-5.91,3.73-14.44,5.45-19.15s5.57-13.7,2-23.79c-3.72-10.61-15-8.8-16.82,1.92-1,6-8.09,22.59-18.8,32.05-9.51,8.42-18,14.15-21.67,18.69a15.69,15.69,0,0,1-7.18,5.22v45.88h5.2c7.46,0,29.89,7.56,40.84,8,15.12.56,17.55.12,23.72-.56l5.78-.84a9.12,9.12,0,0,0,6.52-13.53,9.13,9.13,0,0,0,5.22-16.06A9.2,9.2,0,0,0,195.56,171.55Z" transform="translate(-8.06 -19.23)"/><path class="cls-4" d="M65.56,167.28v41.51a9.29,9.29,0,0,0,9.29,9.29H85.93a6.19,6.19,0,0,0,6.19-6.2V158H74.85A9.29,9.29,0,0,0,65.56,167.28Zm13.06,32.37a4.27,4.27,0,1,1-4.26,4.27A4.27,4.27,0,0,1,78.62,199.65Z" transform="translate(-8.06 -19.23)"/><circle class="cls-5" cx="122.5" cy="27.42" r="4"/><circle class="cls-6" cx="89.15" cy="35.42" r="4"/><circle class="cls-7" cx="157.5" cy="35.42" r="4"/><text class="cls-8" transform="matrix(0.73, -0.7, 0.69, 0.72, 63.15, 83.99)">G</text><text class="cls-8" transform="translate(75.03 72.72) rotate(-33.36) scale(1.01 1)">o</text><text class="cls-8" transform="translate(86.62 65.03) rotate(-23.95) scale(1.01 1)">o</text><text class="cls-8" transform="translate(99.23 59.31) rotate(-14.04) scale(1.01 1)">d</text><text class="cls-8" transform="matrix(1, -0.12, 0.12, 0.99, 113.93, 55.9)"> </text><text class="cls-8" transform="matrix(1.01, 0.03, -0.03, 1, 120.11, 54.75)">O</text><text class="cls-8" transform="translate(137.28 55.26) rotate(12.65) scale(1.01 1)">p</text><text class="cls-8" transform="matrix(0.95, 0.34, -0.34, 0.94, 152, 58.84)">i</text><text class="cls-8" transform="translate(157.7 60.6) rotate(27.06) scale(1.01 1)">n</text><text class="cls-8" transform="translate(170.39 67.35) rotate(34.21) scale(1.01 1)">i</text><text class="cls-8" transform="translate(175.47 70.47) rotate(41.3) scale(1.01 1)">o</text><text class="cls-8" transform="matrix(0.63, 0.79, -0.78, 0.63, 185.94, 79.58)">n</text></svg>
