<?xml version="1.0" encoding="utf-8"?>
<!-- Generator: Adobe Illustrator 23.0.4, SVG Export Plug-In . SVG Version: 6.00 Build 0)  -->
<svg version="1.1" id="_x32_" xmlns="http://www.w3.org/2000/svg" xmlns:xlink="http://www.w3.org/1999/xlink" x="0px" y="0px"
	 viewBox="0 0 512 512" style="enable-background:new 0 0 512 512;" xml:space="preserve">
<style type="text/css">
	.st-upvote0{fill:url(#SVGID_1_) !important;}
	.st-upvote1{fill:url(#SVGID_2_) !important;}
</style>
<g>
	<linearGradient id="SVGID_1_" gradientUnits="userSpaceOnUse" x1="134.031" y1="243.9515" x2="512" y2="243.9515">
		<stop  offset="0" style="stop-color:#23B7C5 !important"/>
		<stop  offset="6.419156e-02" style="stop-color:#2BB0D0 !important"/>
		<stop  offset="0.169" style="stop-color:#33A8DB !important"/>
		<stop  offset="0.2809" style="stop-color:#36A6DF !important"/>
		<stop  offset="0.6685" style="stop-color:#519FD8 !important"/>
		<stop  offset="0.8876" style="stop-color:#3698D5 !important"/>
		<stop  offset="1" style="stop-color:#337BBF !important"/>
	</linearGradient>
	<path class="st-upvote0" d="M512,319.3c0-16.7-11.3-30.5-26.6-34.8c9.5-6.5,15.8-17.5,15.8-29.9c0-20-16.2-36.3-36.3-36.3h-35.7h-0.5h-2.1
		c-1.5,0-2.1,0-2.1,0c-0.4,0-0.8,0-1.3,0H397c-14.7-0.6-30.5-3.1-38.5-11.8c-21.7-23.3,14.7-56.9,21.5-75.4c6.8-18.5,22-54,8-93.7
		C373.3-4.4,328.7,2.7,321.7,45c-3.9,23.4-31.9,89-74,126.2c-37.5,33.1-70.9,55.7-85.3,73.6c-13.2,16.4-28.3,20.6-28.3,20.6v180.7
		c0,0,0,0,20.5,0c29.4,0,117.7,29.8,160.8,31.4c59.6,2.2,69.1,0.5,93.4-2.2l22.8-3.3c17.2-2.8,30.4-17.6,30.4-35.7
		c0-6.4-1.8-12.4-4.7-17.6c18.5-1.6,33.2-17,33.2-36c0-11-4.9-20.6-12.6-27.3C496.8,354.3,512,338.6,512,319.3z"/>
	<linearGradient id="SVGID_2_" gradientUnits="userSpaceOnUse" x1="0" y1="384.2345" x2="104.609" y2="384.2345">
		<stop  offset="0" style="stop-color:#23B7C5 !important"/>
		<stop  offset="6.419156e-02" style="stop-color:#2BB0D0 !important"/>
		<stop  offset="0.169" style="stop-color:#33A8DB !important"/>
		<stop  offset="0.2809" style="stop-color:#36A6DF !important"/>
		<stop  offset="0.6685" style="stop-color:#519FD8 !important"/>
		<stop  offset="0.8876" style="stop-color:#3698D5 !important"/>
		<stop  offset="1" style="stop-color:#337BBF !important"/>
	</linearGradient>
	<path class="st-upvote1" d="M0,302.5V466c0,20.2,16.4,36.6,36.6,36.6h43.7c13.5,0,24.4-10.9,24.4-24.4V265.9h-68
		C16.4,265.9,0,282.3,0,302.5z M51.5,430c9.3,0,16.8,7.5,16.8,16.8s-7.5,16.8-16.8,16.8c-9.3,0-16.8-7.5-16.8-16.8
		S42.2,430,51.5,430z"/>
</g>
</svg>
