<svg id="レイヤー_1" data-name="レイヤー 1" xmlns="http://www.w3.org/2000/svg" xmlns:xlink="http://www.w3.org/1999/xlink" viewBox="0 0 240 175.44"><defs><style>.color-debate-cls-1{fill:url(#color-debate-gradation_2);}.color-debate-cls-2{fill:url(#color-debate-gradation_2-2);}.color-debate-cls-3{fill:url(#color-debate-gradation_2-3);}.color-debate-cls-4{fill:url(#color-debate-gradation_2-4);}</style><linearGradient id="color-debate-gradation_2" x1="8.98" y1="141.73" x2="248.98" y2="141.73" gradientUnits="userSpaceOnUse"><stop offset="0" stop-color="#ee7649"/><stop offset="0.08" stop-color="#e46544"/><stop offset="0.18" stop-color="#dd5a41"/><stop offset="0.28" stop-color="#db5640"/><stop offset="0.57" stop-color="#ea555c"/><stop offset="0.81" stop-color="#d64292"/><stop offset="1" stop-color="#d64292"/></linearGradient><linearGradient id="color-debate-gradation_2-2" x1="58.78" y1="124.19" x2="71.82" y2="124.19" xlink:href="#color-debate-gradation_2"/><linearGradient id="color-debate-gradation_2-3" x1="100.7" y1="124.19" x2="113.75" y2="124.19" xlink:href="#color-debate-gradation_2"/><linearGradient id="color-debate-gradation_2-4" x1="54.34" y1="155.77" x2="116.84" y2="155.77" xlink:href="#color-debate-gradation_2"/></defs><title>color-debate</title><path class="color-debate-cls-1" d="M187.7,93.78a61.08,61.08,0,0,0-30.59,8.16l-.37.23a2.18,2.18,0,0,1-.09-.23A76.62,76.62,0,1,0,46.4,196.46v27.15s35.6-2,75.27-25.4a75.89,75.89,0,0,0,8.68-5.41c1.89-1.36,3.72-2.81,5.47-4.34l.31-.27c.06.08.11.18.17.27a61.48,61.48,0,0,0,22.53,20.68C190.57,227.82,219,229.45,219,229.45V207.74a61.29,61.29,0,0,0-31.34-114Zm-48.36,64.9a60.48,60.48,0,0,1-10.66,14.57,61.81,61.81,0,0,1-7.68,6.59,63.15,63.15,0,0,1-6.87,4.29l-.28.15-.29.16a183,183,0,0,1-47.37,19.49c-1.31.34-2.58.64-3.8.92V187.38l-7.8-4.65A60.58,60.58,0,0,1,25,130.62a60.63,60.63,0,1,1,121.25,0A59.89,59.89,0,0,1,139.34,158.68Zm65.33-16.54a4.9,4.9,0,1,1-4.89,4.9A4.9,4.9,0,0,1,204.67,142.14Zm-31.5,0a4.9,4.9,0,1,1-4.89,4.9A4.9,4.9,0,0,1,173.17,142.14Zm31.93,29.39a28.56,28.56,0,0,1-40.16-6.92h46.95A28.61,28.61,0,0,1,205.1,171.53Z" transform="translate(-8.98 -54.01)"/><path class="color-debate-cls-2" d="M65.3,130.71a6.53,6.53,0,1,0-6.52-6.52A6.52,6.52,0,0,0,65.3,130.71Z" transform="translate(-8.98 -54.01)"/><path class="color-debate-cls-3" d="M107.23,130.71a6.53,6.53,0,1,0-6.53-6.52A6.52,6.52,0,0,0,107.23,130.71Z" transform="translate(-8.98 -54.01)"/><path class="color-debate-cls-4" d="M85.59,164a37.83,37.83,0,0,0,22.2-7.16,38.28,38.28,0,0,0,9-9.22H54.34A38,38,0,0,0,85.59,164Z" transform="translate(-8.98 -54.01)"/></svg>
