<svg id="_2" data-name="2" xmlns="http://www.w3.org/2000/svg" xmlns:xlink="http://www.w3.org/1999/xlink" viewBox="0 0 512 362.93"><defs><style>.color-request-cls-1{fill:url(#color-request-gradation_1);}</style><linearGradient id="color-request-gradation_1" y1="256" x2="512" y2="256" gradientUnits="userSpaceOnUse"><stop offset="0" stop-color="#23b8c6"/><stop offset="0.06" stop-color="#2bb1d1"/><stop offset="0.17" stop-color="#33a9dc"/><stop offset="0.28" stop-color="#36a7e0"/><stop offset="0.67" stop-color="#51a0d9"/><stop offset="0.89" stop-color="#3699d6"/><stop offset="1" stop-color="#337bc0"/></linearGradient></defs><title>color-request</title><path class="color-request-cls-1" d="M452.29,74.54H59.71A59.7,59.7,0,0,0,0,134.24V377.76a59.71,59.71,0,0,0,59.71,59.71H452.29A59.71,59.71,0,0,0,512,377.76V134.24A59.7,59.7,0,0,0,452.29,74.54Zm31.2,319.31-11.37,13.46L313,277.41l-24.65,23.45a47.77,47.77,0,0,1-64.62,0L199,277.41,39.88,407.31,28.51,393.85,178,257.33,27.53,116l8.89-11.78L256,270.56,475.58,104.19,484.46,116,334.05,257.33Z" transform="translate(0 -74.54)"/></svg>
