<?xml version="1.0" standalone="no"?><!DOCTYPE svg PUBLIC "-//W3C//DTD SVG 1.1//EN" "http://www.w3.org/Graphics/SVG/1.1/DTD/svg11.dtd"><svg class="icon" height="512" viewBox="0 0 1024 1024" version="1.1" xmlns="http://www.w3.org/2000/svg"><path d="M862.579075 731.154325l-67.547419 0.251733-0.248663-68.895113c0-18.695804-14.086833-33.821293-32.766264-33.821293-18.681478 0-33.825386 15.125489-33.825386 33.821293l-0.106424 69.143777-68.419276 0.254803c-18.693758 0-33.82334 14.072507-33.82334 32.769334 0 18.663058 15.129582 33.82334 33.82334 33.82334l68.316945 0.100284-0.106424 69.990051c0 18.700921 15.145955 33.825386 33.825386 33.825386s33.825386-15.123442 33.825386-33.825386l-0.251733-69.891813 67.303872 0.099261c18.679431 0 33.827433-15.129582 33.827433-33.827433C896.405485 746.314607 881.257483 731.154325 862.579075 731.154325zM655.170259 649.142473c1.169639 0.896416 2.334161 1.797949 3.488451 2.712785l0-1.520633c2.924609 0.823761 6.006807 1.274016 9.195429 1.274016 18.679431 0 33.82334-15.129582 33.82334-33.827433l-0.297782-3.137457c0-7.616468-2.52552-14.649652-6.782473-20.308535l0.839111 0c-0.700965-0.533143-1.409093-1.055029-2.113127-1.582031-3.622504-4.259-8.280594-7.608282-13.586436-9.658987-17.377786-11.720949-35.893488-21.880333-55.359842-30.258141 62.381769-42.744523 103.32118-114.508987 103.32118-195.832154 0-131.001613-106.216113-237.198284-237.216703-237.198284-131.020032 0-237.234099 106.196671-237.234099 237.198284 0 81.351819 40.96704 153.139819 103.391788 195.878203-106.744139 45.985334-185.117115 145.258315-201.644533 264.311805-1.223874 3.498684-1.89721 7.255241-1.89721 11.168364l0.252757 2.680039c-0.002047 0.021489-0.004093 0.040932-0.00614 0.062422l0.01228 0 0.037862 0.398066c0 18.695804 15.144932 33.825386 33.822316 33.825386 18.697851 0 33.825386-15.129582 33.825386-33.825386l-0.037862-0.398066 0.60989 0c15.748682-129.129986 122.364909-230.207056 253.992785-237.344616 4.92108 0.304945 9.876951 0.477884 14.874779 0.477884 5.008061 0 9.973142-0.173962 14.903431-0.479931 50.500161 2.733251 97.319489 19.302625 136.742361 45.979194C645.628952 643.836631 650.09159 647.087675 655.170259 649.142473zM490.412844 526.520715c-93.577259 0-169.450297-75.872015-169.450297-169.45132 0-93.578282 75.873038-169.45132 169.450297-169.45132 93.580329 0 169.434947 75.874061 169.434947 169.45132C659.847791 450.6487 583.993173 526.520715 490.412844 526.520715z" /></svg>