<svg id="レイヤー_1" data-name="レイヤー 1" xmlns="http://www.w3.org/2000/svg" xmlns:xlink="http://www.w3.org/1999/xlink" viewBox="0 0 245 247.32"><defs><style>.message-good-cls-1,.message-good-cls-2{fill:none;stroke-miterlimit:10;stroke-width:5px;}.message-good-cls-1,.message-good-cls-2,.message-good-cls-3,.message-good-cls-4,.message-good-cls-5,.message-good-cls-6,.message-good-cls-7{opacity:0.7;}.message-good-cls-1{stroke:url(#新規グラデーションスウォッチ_2);}.message-good-cls-2{stroke:url(#新規グラデーションスウォッチ_2-2);}.message-good-cls-3{fill:url(#新規グラデーションスウォッチ_2-3);}.message-good-cls-4{fill:url(#新規グラデーションスウォッチ_2-4);}.message-good-cls-5{fill:url(#新規グラデーションスウォッチ_2-5);}.message-good-cls-6{font-size:20px;fill:#ea555c;font-family:HiraKakuStdN-W8-83pv-RKSJ-H, Hiragino Kaku Gothic StdN;}.message-good-cls-8{fill:url(#新規グラデーションスウォッチ_2-6);}.message-good-cls-9{fill:url(#新規グラデーションスウォッチ_2-7);}</style><linearGradient id="新規グラデーションスウォッチ_2" y1="124.82" x2="245" y2="124.82" gradientUnits="userSpaceOnUse"><stop offset="0" stop-color="#ee7649"/><stop offset="0.08" stop-color="#e46544"/><stop offset="0.18" stop-color="#dd5a41"/><stop offset="0.28" stop-color="#db5640"/><stop offset="0.57" stop-color="#ea555c"/><stop offset="0.81" stop-color="#d64292"/><stop offset="1" stop-color="#d64292"/></linearGradient><linearGradient id="新規グラデーションスウォッチ_2-2" x1="14.5" y1="124.82" x2="230.5" y2="124.82" xlink:href="#新規グラデーションスウォッチ_2"/><linearGradient id="新規グラデーションスウォッチ_2-3" x1="118.5" y1="29.74" x2="126.5" y2="29.74" xlink:href="#新規グラデーションスウォッチ_2"/><linearGradient id="新規グラデーションスウォッチ_2-4" x1="85.15" y1="37.74" x2="93.15" y2="37.74" xlink:href="#新規グラデーションスウォッチ_2"/><linearGradient id="新規グラデーションスウォッチ_2-5" x1="153.5" y1="37.74" x2="161.5" y2="37.74" xlink:href="#新規グラデーションスウォッチ_2"/><linearGradient id="新規グラデーションスウォッチ_2-6" x1="98.59" y1="158.92" x2="194.56" y2="158.92" xlink:href="#新規グラデーションスウォッチ_2"/><linearGradient id="新規グラデーションスウォッチ_2-7" x1="64.56" y1="194.54" x2="91.12" y2="194.54" xlink:href="#新規グラデーションスウォッチ_2"/></defs><title>color-good-cheering</title><circle class="message-good-cls-1" cx="122.5" cy="124.82" r="120"/><circle class="message-good-cls-2" cx="122.5" cy="124.82" r="105.5"/><circle class="message-good-cls-3" cx="122.5" cy="29.74" r="4"/><circle class="message-good-cls-4" cx="89.15" cy="37.74" r="4"/><circle class="message-good-cls-5" cx="157.5" cy="37.74" r="4"/><text class="message-good-cls-6" transform="matrix(0.67, -0.76, 0.75, 0.66, 57.8, 93.08)">M</text><text class="message-good-cls-6" transform="matrix(0.81, -0.61, 0.6, 0.8, 71.34, 78.21)">e</text><text class="message-good-cls-6" transform="translate(82.01 70.13) rotate(-28.23) scale(1.01 1)">s</text><text class="message-good-cls-6" transform="matrix(0.95, -0.34, 0.33, 0.94, 93.17, 64.09)">s</text><text class="message-good-cls-6" transform="matrix(0.99, -0.18, 0.18, 0.98, 105.09, 59.79)">a</text><text class="message-good-cls-6" transform="matrix(1.01, -0.01, 0.01, 1, 118.44, 57.27)">g</text><text class="message-good-cls-6" transform="translate(132.89 57.1) rotate(8.93) scale(1.01 1)">e</text><text class="message-good-cls-6" transform="translate(146.16 59.37) rotate(15.8) scale(1.01 1)"> </text><text class="message-good-cls-6" transform="matrix(0.92, 0.41, -0.4, 0.92, 152.31, 60.71)">G</text><text class="message-good-cls-6" transform="translate(167.25 67.35) rotate(34.43) scale(1.01 1)">o</text><text class="message-good-cls-6" transform="matrix(0.72, 0.71, -0.7, 0.72, 178.72, 75.15)">o</text><text class="message-good-cls-6" transform="matrix(0.58, 0.83, -0.82, 0.57, 188.75, 84.69)">d</text><g class="message-good-cls-7"><path class="message-good-cls-8" d="M194.56,178.06a9.18,9.18,0,0,0-6.76-8.84,9.21,9.21,0,0,0-5.2-16.81H165.37c-3.72-.16-7.74-.8-9.79-3-5.51-5.91,3.73-14.44,5.45-19.15s5.57-13.7,2-23.79c-3.72-10.61-15-8.81-16.82,1.92-1,5.94-8.09,22.59-18.8,32-9.51,8.41-18,14.14-21.67,18.68a15.77,15.77,0,0,1-7.18,5.23v45.87h5.2c7.46,0,29.89,7.57,40.84,8,15.12.57,17.55.13,23.72-.55l5.78-.84a9.12,9.12,0,0,0,6.52-13.53,9.14,9.14,0,0,0,5.22-16.07A9.19,9.19,0,0,0,194.56,178.06Z" transform="translate(-7.06 -21.91)"/><path class="message-good-cls-9" d="M64.56,173.79v41.5a9.29,9.29,0,0,0,9.29,9.29H84.93a6.19,6.19,0,0,0,6.19-6.19V164.5H73.85A9.28,9.28,0,0,0,64.56,173.79Zm13.06,32.36a4.27,4.27,0,1,1-4.26,4.27A4.27,4.27,0,0,1,77.62,206.15Z" transform="translate(-7.06 -21.91)"/></g></svg>
