<?xml version="1.0" encoding="utf-8"?>
<!-- Generator: Adobe Illustrator 23.0.2, SVG Export Plug-In . SVG Version: 6.00 Build 0)  -->
<svg version="1.1" id="_x32_" xmlns="http://www.w3.org/2000/svg" xmlns:xlink="http://www.w3.org/1999/xlink" x="0px" y="0px"
	 viewBox="0 0 512 512" style="enable-background:new 0 0 512 512;" xml:space="preserve">
<g>
	<path class="st0" d="M263.1,205.7h-29.2v58.7h29.2c18.5,0,33.5-13.2,33.5-29.3C296.6,218.9,281.6,205.7,263.1,205.7z"/>
	<path class="st0" d="M256,76c-99.2,0-180,80.7-180,180s80.7,180,180,180s180-80.7,180-180S355.2,76,256,76z M263.1,297h-29.2v42.8
		c0,8.2-6.7,14.9-14.9,14.9h-7.5c-8.2,0-14.9-6.7-14.9-14.9V188c0-8.2,6.7-14.9,14.9-14.9h51.5c39,0,70.7,27.8,70.7,62
		S302.1,297,263.1,297z"/>
	<path class="st0" d="M256,0C114.6,0,0,114.6,0,256c0,141.4,114.6,256,256,256s256-114.6,256-256C512,114.6,397.4,0,256,0z M256,454
		c-109.2,0-198-88.8-198-198S146.8,58,256,58s198,88.8,198,198S365.2,454,256,454z"/>
</g>
</svg>
