<svg id="レイヤー_1" data-name="レイヤー 1" xmlns="http://www.w3.org/2000/svg" xmlns:xlink="http://www.w3.org/1999/xlink" viewBox="0 0 263.18 255.07">
  <defs>
    <style></style>
    <linearGradient id="オレンジ_イエロー" x1="229.62" y1="37.54" x2="247.25" y2="37.54" gradientUnits="userSpaceOnUse">
      <stop offset="0" stop-color="#fff11d"/>
      <stop offset="0.01" stop-color="#ffee1b"/>
      <stop offset="0.1" stop-color="#fddb0c"/><stop offset="0.19" stop-color="#fbd003"/><stop offset="0.28" stop-color="#fbcc00"/>
      <stop offset="0.67" stop-color="#f0932e"/>
      <stop offset="0.89" stop-color="#e9652d"/>
      <stop offset="1" stop-color="#e4352b"/>
    </linearGradient>
    <linearGradient id="オレンジ_イエロー-2" x1="202.09" y1="22.86" x2="210.9" y2="22.86" xlink:href="#オレンジ_イエロー"/>
    <linearGradient id="オレンジ_イエロー-3" x1="224.39" y1="11.43" x2="247.25" y2="11.43" xlink:href="#オレンジ_イエロー"/>
    <linearGradient id="オレンジ_イエロー-4" x1="41.15" y1="241.15" x2="51.37" y2="241.15" xlink:href="#オレンジ_イエロー"/>
    <linearGradient id="オレンジ_イエロー-5" x1="10.97" y1="246.25" x2="28.6" y2="246.25" xlink:href="#オレンジ_イエロー"/>
    <linearGradient id="名称未設定グラデーション_2" x1="4.42" y1="145.23" x2="254.83" y2="145.23" xlink:href="#オレンジ_イエロー"/>
    <linearGradient id="名称未設定グラデーション_7" x1="8.21" y1="220.91" x2="42.51" y2="220.91" gradientUnits="userSpaceOnUse">
      <stop offset="0" stop-color="#fff11d"/>
      <stop offset="0.04" stop-color="#ffee1b"/>
      <stop offset="0.35" stop-color="#fddb0c"/>
      <stop offset="0.66" stop-color="#fbd003"/>
      <stop offset="1" stop-color="#fbcc00"/>
      <stop offset="1" stop-color="#e9652d"/>
      <stop offset="1" stop-color="#f0932e"/>
      <stop offset="1" stop-color="#e4352b"/>
    </linearGradient>
    <linearGradient id="名称未設定グラデーション_14" x1="252.61" y1="151.76" x2="267.6" y2="151.76" gradientUnits="userSpaceOnUse">
      <stop offset="0" stop-color="#e4352b"/>
      <stop offset="0.3" stop-color="#e9652d"/>
      <stop offset="0.61" stop-color="#f0932e"/>
      <stop offset="1" stop-color="#fff11d"/>
      <stop offset="1" stop-color="#ffee1b"/>
      <stop offset="1" stop-color="#fddb0c"/>
      <stop offset="1" stop-color="#fbd003"/>
      <stop offset="1" stop-color="#fbcc00"/>
    </linearGradient>
    <linearGradient id="名称未設定グラデーション_16" x1="220.15" y1="64.15" x2="227.66" y2="64.15" gradientUnits="userSpaceOnUse">
      <stop offset="0" stop-color="#fff11d"/>
      <stop offset="0" stop-color="#ffee1b"/>
      <stop offset="0" stop-color="#fddb0c"/>
      <stop offset="0" stop-color="#fbd003"/>
      <stop offset="0" stop-color="#fbcc00"/>
      <stop offset="0" stop-color="#f1972c"/>
      <stop offset="0.67" stop-color="#f0932e"/>
      <stop offset="0.89" stop-color="#e9652d"/>
      <stop offset="1" stop-color="#e4352b"/>
    </linearGradient>
  </defs>
  <title>selfinity-mini-logo</title>
  <circle class="cls-1" cx="238.44" cy="37.54" r="8.82"/>
  <circle class="cls-2" cx="206.49" cy="22.86" r="4.41"/>
  <circle class="cls-3" cx="235.82" cy="11.43" r="11.43"/>
  <circle class="cls-4" cx="46.26" cy="241.15" r="5.11"/>
  <circle class="cls-5" cx="19.78" cy="246.25" r="8.82"/>
  <path class="cls-6" d="M247.13,157.5c-3.41-5.91-1.74-13.25,3.71-16.4a10.64,10.64,0,0,1,4-1.33,124.56,124.56,0,0,0-26.12-71.23,8.58,8.58,0,0,1-4.11,8.27c-4.13,2.38-9.58.69-12.16-3.78s-1.33-10,2.81-12.42a8.21,8.21,0,0,1,6-.87A125.26,125.26,0,0,0,17.56,201.11c.34-.24.68-.48,1.05-.69,9.6-5.54,22.25-1.62,28.24,8.77,5.33,9.23,3.61,20.44-3.58,26.71a125.29,125.29,0,0,0,210.41-72.77A13,13,0,0,1,247.13,157.5ZM117.42,263.58c-10.69,6.17-24.76,1.79-31.44-9.77s-3.42-25.93,7.27-32.1,24.76-1.8,31.43,9.76S128.11,257.41,117.42,263.58ZM125.48,185c-5.18,3-12,.87-15.24-4.73s-1.66-12.58,3.52-15.57,12-.87,15.25,4.73S130.67,182,125.48,185Zm87.41,14c-19.92,11.5-46.16,3.35-58.6-18.2s-6.38-48.35,13.54-59.85,46.16-3.36,58.61,18.19S232.82,187.46,212.89,199Z" transform="translate(-4.42 -17.27)"/>
  <path class="cls-7" d="M16.79,201.19c-8.74,5.86-11.24,18.16-5.47,28.15,6,10.39,18.64,14.31,28.24,8.77A19.11,19.11,0,0,0,42.51,236,125.4,125.4,0,0,1,16.79,201.19Z" transform="translate(-4.42 -17.27)"/>
  <path class="cls-8" d="M265.82,146.05a12.32,12.32,0,0,0-12.06-6.31c.08,1.81.13,3.63.13,5.46a127.16,127.16,0,0,1-1.28,17.89,11,11,0,0,0,9.51-.64C267.57,159.29,269.23,152,265.82,146.05Z" transform="translate(-4.42 -17.27)"/>
  <path class="cls-9" d="M227.66,68.55a9.88,9.88,0,0,0-1.31-4.15,9.62,9.62,0,0,0-6.2-4.65Q224.11,64,227.66,68.55Z" transform="translate(-4.42 -17.27)"/>
</svg>
