<svg id="レイヤー_1" data-name="レイヤー 1" xmlns="http://www.w3.org/2000/svg" xmlns:xlink="http://www.w3.org/1999/xlink" viewBox="0 0 245 245"><defs><style>.super-good-cls-1,.super-good-cls-2{fill:none!important;stroke-miterlimit:10!important;stroke-width:5px!important;}.super-good-cls-1,.super-good-cls-2,.super-good-cls-3,.super-good-cls-6,.super-good-cls-7,.super-good-cls-8,.super-good-cls-9{opacity:0.7;}.super-good-cls-1{stroke:url(#新規グラデーションスウォッチ_1);}.super-good-cls-2{stroke:url(#新規グラデーションスウォッチ_1-2)!important;}.super-good-cls-4{fill:url(#新規グラデーションスウォッチ_1-3)!important;}.super-good-cls-5{fill:url(#新規グラデーションスウォッチ_1-4)!important;}.super-good-cls-6{fill:url(#新規グラデーションスウォッチ_1-5)!important;}.super-good-cls-7{fill:url(#新規グラデーションスウォッチ_1-6)!important;}.super-good-cls-8{fill:url(#新規グラデーションスウォッチ_1-7)!important;}.super-good-cls-9{font-size:20px!important;fill:#2ea7e0!important;font-family:HiraKakuStdN-W8-83pv-RKSJ-H, Hiragino Kaku Gothic StdN!important;}</style><linearGradient id="新規グラデーションスウォッチ_1" y1="122.5" x2="245" y2="122.5" gradientUnits="userSpaceOnUse"><stop offset="0" stop-color="#23b8c6"/><stop offset="0.06" stop-color="#2bb1d1"/><stop offset="0.17" stop-color="#33a9dc"/><stop offset="0.28" stop-color="#36a7e0"/><stop offset="0.67" stop-color="#51a0d9"/><stop offset="0.89" stop-color="#3699d6"/><stop offset="1" stop-color="#337bc0"/></linearGradient><linearGradient id="新規グラデーションスウォッチ_1-2" x1="14.5" y1="122.5" x2="230.5" y2="122.5" xlink:href="#新規グラデーションスウォッチ_1"/><linearGradient id="新規グラデーションスウォッチ_1-3" x1="99.59" y1="152.41" x2="195.56" y2="152.41" xlink:href="#新規グラデーションスウォッチ_1"/><linearGradient id="新規グラデーションスウォッチ_1-4" x1="65.56" y1="188.03" x2="92.12" y2="188.03" xlink:href="#新規グラデーションスウォッチ_1"/><linearGradient id="新規グラデーションスウォッチ_1-5" x1="118.5" y1="27.42" x2="126.5" y2="27.42" xlink:href="#新規グラデーションスウォッチ_1"/><linearGradient id="新規グラデーションスウォッチ_1-6" x1="85.15" y1="35.42" x2="93.15" y2="35.42" xlink:href="#新規グラデーションスウォッチ_1"/><linearGradient id="新規グラデーションスウォッチ_1-7" x1="153.5" y1="35.42" x2="161.5" y2="35.42" xlink:href="#新規グラデーションスウォッチ_1"/></defs><title>color-good-opinion</title><circle class="super-good-cls-1" cx="122.5" cy="122.5" r="120"/><circle class="super-good-cls-2" cx="122.5" cy="122.5" r="105.5"/><g class="super-good-cls-3"><path class="super-good-cls-4" d="M195.56,171.55a9.19,9.19,0,0,0-6.76-8.84,9.21,9.21,0,0,0-5.2-16.81H166.37c-3.72-.16-7.74-.79-9.79-3-5.51-5.91,3.73-14.44,5.45-19.15s5.57-13.7,2-23.79c-3.72-10.61-15-8.8-16.82,1.92-1,6-8.09,22.59-18.8,32.05-9.51,8.42-18,14.15-21.67,18.69a15.69,15.69,0,0,1-7.18,5.22v45.88h5.2c7.46,0,29.89,7.56,40.84,8,15.12.56,17.55.12,23.72-.56l5.78-.84a9.12,9.12,0,0,0,6.52-13.53,9.13,9.13,0,0,0,5.22-16.06A9.2,9.2,0,0,0,195.56,171.55Z" transform="translate(-8.06 -19.23)"/><path class="super-good-cls-5" d="M65.56,167.28v41.51a9.29,9.29,0,0,0,9.29,9.29H85.93a6.19,6.19,0,0,0,6.19-6.2V158H74.85A9.29,9.29,0,0,0,65.56,167.28Zm13.06,32.37a4.27,4.27,0,1,1-4.26,4.27A4.27,4.27,0,0,1,78.62,199.65Z" transform="translate(-8.06 -19.23)"/></g><circle class="super-good-cls-6" cx="122.5" cy="27.42" r="4"/><circle class="super-good-cls-7" cx="89.15" cy="35.42" r="4"/><circle class="super-good-cls-8" cx="157.5" cy="35.42" r="4"/><text class="super-good-cls-9" transform="matrix(0.76, -0.67, 0.66, 0.75, 66.06, 80.82)">S</text><text class="super-good-cls-9" transform="matrix(0.86, -0.52, 0.52, 0.85, 77.21, 71)">u</text><text class="super-good-cls-9" transform="translate(89.36 63.53) rotate(-21.35) scale(1.01 1)">p</text><text class="super-good-cls-9" transform="translate(103.39 58.07) rotate(-11.57) scale(1.01 1)">e</text><text class="super-good-cls-9" transform="matrix(1.01, -0.06, 0.06, 1, 116.5, 55.44)">r</text><text class="super-good-cls-9" transform="translate(127.4 54.93) rotate(2.79) scale(1.01 1)"> </text><text class="super-good-cls-9" transform="matrix(0.99, 0.19, -0.19, 0.98, 133.71, 54.86)">G</text><text class="super-good-cls-9" transform="matrix(0.94, 0.36, -0.36, 0.93, 149.78, 57.95)">o</text><text class="super-good-cls-9" transform="translate(162.76 62.91) rotate(30.8) scale(1.01 1)">o</text><text class="super-good-cls-9" transform="matrix(0.76, 0.66, -0.66, 0.76, 174.71, 69.91)">d</text></svg>
